<svg xmlns="http://www.w3.org/2000/svg" viewBox="0 0 1617.52 319.77" width="1618" height="320" role="img" aria-label="Boise Remodeling Co full wordmark, charcoal accent"><title>Boise Remodeling Co full wordmark, charcoal accent</title><desc>Stacked wordmark lockup for Boise Remodeling Co.</desc><metadata>Boise Remodeling Co, home remodeling, construction, handyman, ADU, cabinets, Boise, Meridian, Eagle, Nampa, Treasure Valley, Idaho, logo, brand identity</metadata><g transform="translate(-33.40,-13.04)"><path d="M73.400 132.000V53.600H106.104Q118.760 53.600 125.928 58.752Q133.096 63.904 133.096 73.648Q133.096 80.032 130.072 84.400Q127.048 88.768 121.728 90.952Q116.408 93.136 109.800 93.136L111.816 90.896Q119.880 90.896 125.592 93.248Q131.304 95.600 134.272 100.080Q137.240 104.560 137.240 111.280Q137.240 121.136 130.072 126.568Q122.904 132.000 108.344 132.000ZM79.112 127.072H108.344Q119.656 127.072 125.592 123.208Q131.528 119.344 131.528 110.832Q131.528 102.432 125.592 98.568Q119.656 94.704 108.344 94.704H78.440V89.776H105.880Q116.072 89.776 121.672 85.856Q127.272 81.936 127.272 74.096Q127.272 66.368 121.672 62.448Q116.072 58.528 105.880 58.528H79.112ZM203.885 132.560Q195.149 132.560 187.701 129.592Q180.253 126.624 174.709 121.192Q169.165 115.760 166.141 108.536Q163.117 101.312 163.117 92.800Q163.117 84.288 166.141 77.064Q169.165 69.840 174.709 64.408Q180.253 58.976 187.701 56.008Q195.149 53.040 203.885 53.040Q212.621 53.040 220.069 56.008Q227.517 58.976 233.005 64.352Q238.493 69.728 241.573 76.952Q244.653 84.176 244.653 92.800Q244.653 101.424 241.573 108.648Q238.493 115.872 233.005 121.248Q227.517 126.624 220.069 129.592Q212.621 132.560 203.885 132.560ZM203.885 127.296Q211.389 127.296 217.773 124.720Q224.157 122.144 228.861 117.440Q233.565 112.736 236.197 106.464Q238.829 100.192 238.829 92.800Q238.829 85.296 236.197 79.080Q233.565 72.864 228.861 68.160Q224.157 63.456 217.773 60.880Q211.389 58.304 203.885 58.304Q196.381 58.304 189.997 60.880Q183.613 63.456 178.853 68.160Q174.093 72.864 171.461 79.080Q168.829 85.296 168.829 92.800Q168.829 100.192 171.461 106.464Q174.093 112.736 178.853 117.440Q183.613 122.144 189.997 124.720Q196.381 127.296 203.885 127.296ZM277.474 132.000V53.600H283.186V132.000ZM344.119 132.560Q335.383 132.560 327.599 129.592Q319.815 126.624 315.559 121.920L318.135 117.664Q322.167 121.808 329.167 124.664Q336.167 127.520 344.007 127.520Q351.847 127.520 356.831 125.448Q361.815 123.376 364.223 119.904Q366.631 116.432 366.631 112.176Q366.631 107.136 363.943 104.112Q361.255 101.088 356.887 99.296Q352.519 97.504 347.367 96.272Q342.215 95.040 336.951 93.640Q331.687 92.240 327.319 90.000Q322.951 87.760 320.319 83.896Q317.687 80.032 317.687 73.872Q317.687 68.272 320.599 63.568Q323.511 58.864 329.671 55.952Q335.831 53.040 345.463 53.040Q351.959 53.040 358.287 54.944Q364.615 56.848 369.095 60.096L366.967 64.688Q362.039 61.328 356.383 59.704Q350.727 58.080 345.463 58.080Q337.959 58.080 333.031 60.208Q328.103 62.336 325.751 65.864Q323.399 69.392 323.399 73.760Q323.399 78.800 326.031 81.824Q328.663 84.848 333.031 86.640Q337.399 88.432 342.663 89.664Q347.927 90.896 353.079 92.296Q358.231 93.696 362.599 95.936Q366.967 98.176 369.655 101.984Q372.343 105.792 372.343 111.840Q372.343 117.328 369.319 122.088Q366.295 126.848 360.079 129.704Q353.863 132.560 344.119 132.560ZM404.716 132.000V53.600H457.132V58.752H410.428V126.848H458.812V132.000ZM409.756 94.704V89.664H452.204V94.704ZM534.422 132.000V53.600H562.534Q577.318 53.600 585.718 60.544Q594.118 67.488 594.118 80.032Q594.118 88.208 590.310 94.088Q586.502 99.968 579.446 103.160Q572.390 106.352 562.534 106.352H537.558L540.134 103.664V132.000ZM588.854 132.000 568.470 103.552H574.966L595.350 132.000ZM540.134 104.000 537.558 101.312H562.534Q575.190 101.312 581.742 95.712Q588.294 90.112 588.294 80.032Q588.294 69.840 581.742 64.296Q575.190 58.752 562.534 58.752H537.558L540.134 55.952ZM628.059 132.000V53.600H680.475V58.752H633.771V126.848H682.155V132.000ZM633.099 94.704V89.664H675.547V94.704ZM715.984 132.000V53.600H720.800L757.200 116.432H754.624L790.912 53.600H795.616L795.728 132.000H790.128L790.016 62.224H791.584L757.200 121.584H754.400L719.904 62.224H721.584V132.000ZM869.317 132.560Q860.581 132.560 853.133 129.592Q845.685 126.624 840.141 121.192Q834.597 115.760 831.573 108.536Q828.549 101.312 828.549 92.800Q828.549 84.288 831.573 77.064Q834.597 69.840 840.141 64.408Q845.685 58.976 853.133 56.008Q860.581 53.040 869.317 53.040Q878.053 53.040 885.501 56.008Q892.949 58.976 898.437 64.352Q903.925 69.728 907.005 76.952Q910.085 84.176 910.085 92.800Q910.085 101.424 907.005 108.648Q903.925 115.872 898.437 121.248Q892.949 126.624 885.501 129.592Q878.053 132.560 869.317 132.560ZM869.317 127.296Q876.821 127.296 883.205 124.720Q889.589 122.144 894.293 117.440Q898.997 112.736 901.629 106.464Q904.261 100.192 904.261 92.800Q904.261 85.296 901.629 79.080Q898.997 72.864 894.293 68.160Q889.589 63.456 883.205 60.880Q876.821 58.304 869.317 58.304Q861.813 58.304 855.429 60.880Q849.045 63.456 844.285 68.160Q839.525 72.864 836.893 79.080Q834.261 85.296 834.261 92.800Q834.261 100.192 836.893 106.464Q839.525 112.736 844.285 117.440Q849.045 122.144 855.429 124.720Q861.813 127.296 869.317 127.296ZM942.906 132.000V53.600H973.930Q986.362 53.600 995.770 58.640Q1005.178 63.680 1010.386 72.528Q1015.594 81.376 1015.594 92.800Q1015.594 104.224 1010.386 113.072Q1005.178 121.920 995.770 126.960Q986.362 132.000 973.930 132.000ZM948.618 126.848H973.482Q984.570 126.848 992.746 122.480Q1000.922 118.112 1005.402 110.440Q1009.882 102.768 1009.882 92.800Q1009.882 82.832 1005.402 75.160Q1000.922 67.488 992.746 63.120Q984.570 58.752 973.482 58.752H948.618ZM1048.415 132.000V53.600H1100.831V58.752H1054.127V126.848H1102.511V132.000ZM1053.455 94.704V89.664H1095.903V94.704ZM1136.340 132.000V53.600H1142.052V126.848H1187.188V132.000ZM1214.857 132.000V53.600H1220.569V132.000ZM1260.894 132.000V53.600H1265.710L1321.598 124.944H1319.022V53.600H1324.734V132.000H1320.030L1264.030 60.656H1266.606V132.000ZM1398.547 132.560Q1389.699 132.560 1382.195 129.592Q1374.691 126.624 1369.147 121.248Q1363.603 115.872 1360.579 108.648Q1357.555 101.424 1357.555 92.800Q1357.555 84.176 1360.579 76.952Q1363.603 69.728 1369.203 64.352Q1374.803 58.976 1382.251 56.008Q1389.699 53.040 1398.659 53.040Q1407.171 53.040 1414.451 55.728Q1421.731 58.416 1426.883 63.792L1423.299 67.600Q1418.147 62.560 1412.043 60.432Q1405.939 58.304 1398.771 58.304Q1391.155 58.304 1384.659 60.880Q1378.163 63.456 1373.347 68.160Q1368.531 72.864 1365.899 79.136Q1363.267 85.408 1363.267 92.800Q1363.267 100.192 1365.899 106.464Q1368.531 112.736 1373.347 117.440Q1378.163 122.144 1384.659 124.720Q1391.155 127.296 1398.771 127.296Q1405.715 127.296 1411.931 125.168Q1418.147 123.040 1423.299 118.112L1426.547 122.480Q1421.283 127.520 1413.947 130.040Q1406.611 132.560 1398.547 132.560ZM1426.547 122.480 1421.059 121.808V93.136H1426.547Z" fill="#2C302F"/><path d="M1605.514 131.043L1605.707 131.041L1605.895 131.032L1606.080 131.019L1606.261 131.000L1606.438 130.976L1606.611 130.946L1606.781 130.912L1606.948 130.873L1607.112 130.828L1607.274 130.779L1607.433 130.724L1607.589 130.665L1607.744 130.600L1607.896 130.530L1608.047 130.454L1608.197 130.373L1608.345 130.287L1608.492 130.194L1608.638 130.096L1608.782 129.991L1608.926 129.880L1609.069 129.763L1609.212 129.639L1609.352 129.508L1609.488 129.375L1609.616 129.242L1609.737 129.107L1609.851 128.972L1609.958 128.836L1610.058 128.699L1610.153 128.560L1610.241 128.421L1610.324 128.280L1610.400 128.137L1610.472 127.993L1610.537 127.846L1610.598 127.698L1610.653 127.547L1610.704 127.393L1610.749 127.236L1610.789 127.076L1610.824 126.912L1610.854 126.744L1610.879 126.573L1610.898 126.397L1610.912 126.217L1610.921 126.032L1610.924 125.842L1610.921 125.650L1610.913 125.462L1610.899 125.277L1610.880 125.097L1610.856 124.920L1610.827 124.746L1610.792 124.576L1610.753 124.409L1610.708 124.245L1610.659 124.083L1610.605 123.925L1610.545 123.768L1610.480 123.613L1610.410 123.461L1610.335 123.310L1610.254 123.160L1610.167 123.012L1610.074 122.865L1609.976 122.720L1609.871 122.575L1609.760 122.431L1609.643 122.288L1609.519 122.146L1609.389 122.006L1609.258 121.872L1609.126 121.747L1608.993 121.628L1608.858 121.516L1608.721 121.410L1608.583 121.311L1608.442 121.217L1608.299 121.129L1608.154 121.047L1608.006 120.969L1607.855 120.898L1607.701 120.831L1607.543 120.769L1607.382 120.713L1607.217 120.661L1607.047 120.615L1606.873 120.573L1606.695 120.537L1606.511 120.506L1606.322 120.480L1606.129 120.460L1605.929 120.445L1605.725 120.437L1605.515 120.434L1605.325 120.436L1605.140 120.445L1604.960 120.459L1604.784 120.478L1604.613 120.503L1604.445 120.533L1604.281 120.568L1604.121 120.608L1603.964 120.654L1603.810 120.704L1603.659 120.759L1603.511 120.820L1603.364 120.886L1603.220 120.957L1603.078 121.034L1602.937 121.116L1602.797 121.204L1602.659 121.299L1602.521 121.399L1602.385 121.507L1602.250 121.621L1602.115 121.741L1601.982 121.869L1601.849 122.004L1601.720 122.144L1601.597 122.286L1601.481 122.428L1601.370 122.572L1601.267 122.717L1601.169 122.864L1601.076 123.012L1600.990 123.162L1600.909 123.313L1600.833 123.467L1600.763 123.623L1600.698 123.782L1600.638 123.943L1600.582 124.107L1600.532 124.274L1600.487 124.444L1600.447 124.618L1600.413 124.795L1600.383 124.977L1600.358 125.162L1600.339 125.352L1600.325 125.546L1600.317 125.744L1600.314 125.947L1600.317 126.148L1600.325 126.343L1600.339 126.533L1600.359 126.718L1600.383 126.897L1600.413 127.071L1600.448 127.240L1600.487 127.404L1600.532 127.564L1600.581 127.720L1600.635 127.871L1600.694 128.019L1600.757 128.163L1600.826 128.304L1600.899 128.443L1600.978 128.578L1601.061 128.712L1601.150 128.843L1601.245 128.972L1601.346 129.100L1601.453 129.225L1601.566 129.350L1601.686 129.472L1601.814 129.595L1601.950 129.717L1602.087 129.834L1602.226 129.945L1602.365 130.049L1602.505 130.148L1602.646 130.241L1602.788 130.328L1602.931 130.410L1603.075 130.487L1603.221 130.558L1603.369 130.624L1603.518 130.685L1603.669 130.742L1603.822 130.793L1603.977 130.840L1604.136 130.882L1604.296 130.919L1604.460 130.952L1604.627 130.979L1604.797 131.002L1604.971 131.020L1605.148 131.033L1605.330 131.041ZM1563.773 131.038L1564.192 131.023L1564.609 130.997L1565.026 130.961L1565.443 130.914L1565.858 130.857L1566.273 130.789L1566.688 130.711L1567.102 130.623L1567.516 130.524L1567.930 130.415L1568.343 130.295L1568.756 130.164L1569.170 130.022L1569.583 129.870L1569.996 129.707L1570.410 129.533L1570.823 129.348L1571.237 129.152L1571.651 128.945L1572.065 128.727L1572.479 128.498L1572.893 128.257L1573.309 128.004L1573.728 127.740L1574.145 127.467L1574.558 127.188L1574.969 126.901L1575.376 126.608L1575.780 126.308L1576.181 126.000L1576.578 125.686L1576.973 125.365L1577.364 125.036L1577.752 124.701L1578.136 124.359L1578.518 124.009L1578.896 123.652L1579.271 123.288L1579.643 122.917L1580.012 122.539L1580.378 122.154L1580.740 121.761L1581.100 121.362L1581.456 120.955L1581.809 120.540L1582.159 120.119L1582.505 119.690L1582.847 119.256L1583.183 118.818L1583.513 118.376L1583.838 117.930L1584.156 117.480L1584.468 117.026L1584.775 116.568L1585.076 116.107L1585.370 115.641L1585.659 115.171L1585.942 114.697L1586.219 114.219L1586.491 113.737L1586.756 113.251L1587.016 112.761L1587.270 112.267L1587.518 111.768L1587.760 111.266L1587.996 110.759L1588.227 110.249L1588.451 109.734L1588.670 109.215L1588.883 108.692L1589.090 108.165L1589.289 107.639L1589.479 107.113L1589.661 106.588L1589.834 106.064L1589.998 105.540L1590.154 105.017L1590.301 104.495L1590.440 103.973L1590.570 103.452L1590.692 102.931L1590.805 102.410L1590.910 101.890L1591.007 101.371L1591.095 100.852L1591.174 100.334L1591.245 99.815L1591.308 99.298L1591.363 98.780L1591.409 98.263L1591.446 97.747L1591.475 97.230L1591.496 96.714L1591.509 96.199L1591.513 95.683L1591.509 95.212L1591.499 94.747L1591.481 94.288L1591.456 93.835L1591.424 93.388L1591.385 92.947L1591.340 92.512L1591.287 92.084L1591.227 91.661L1591.161 91.244L1591.087 90.834L1591.007 90.429L1590.920 90.030L1590.826 89.637L1590.726 89.250L1590.619 88.868L1590.505 88.493L1590.385 88.123L1590.258 87.759L1590.124 87.400L1589.984 87.047L1589.838 86.699L1589.684 86.357L1589.524 86.020L1589.357 85.686L1589.185 85.359L1589.007 85.039L1588.825 84.726L1588.638 84.420L1588.446 84.121L1588.250 83.829L1588.048 83.543L1587.842 83.264L1587.630 82.992L1587.414 82.726L1587.193 82.467L1586.967 82.214L1586.736 81.967L1586.499 81.727L1586.258 81.492L1586.012 81.264L1585.760 81.042L1585.503 80.826L1585.241 80.616L1584.974 80.412L1584.701 80.214L1584.422 80.022L1584.139 79.836L1583.852 79.657L1583.562 79.486L1583.269 79.323L1582.974 79.168L1582.675 79.020L1582.373 78.880L1582.067 78.747L1581.759 78.623L1581.447 78.505L1581.131 78.395L1580.812 78.293L1580.489 78.198L1580.162 78.110L1579.831 78.030L1579.496 77.958L1579.158 77.893L1578.815 77.835L1578.468 77.785L1578.116 77.743L1577.761 77.708L1577.401 77.681L1577.036 77.662L1576.667 77.650L1576.295 77.646L1575.861 77.651L1575.430 77.666L1575.000 77.690L1574.572 77.724L1574.146 77.767L1573.721 77.820L1573.297 77.883L1572.874 77.956L1572.453 78.038L1572.032 78.130L1571.613 78.231L1571.195 78.343L1570.777 78.464L1570.361 78.595L1569.945 78.736L1569.530 78.887L1569.116 79.047L1568.702 79.218L1568.289 79.399L1567.877 79.590L1567.465 79.791L1567.054 80.003L1566.643 80.224L1566.232 80.457L1565.819 80.700L1565.408 80.951L1565.001 81.209L1564.597 81.474L1564.196 81.746L1563.798 82.025L1563.403 82.312L1563.012 82.605L1562.624 82.906L1562.239 83.214L1561.857 83.529L1561.478 83.851L1561.102 84.181L1560.730 84.518L1560.361 84.862L1559.994 85.213L1559.631 85.572L1559.271 85.938L1558.915 86.311L1558.561 86.692L1558.210 87.080L1557.863 87.476L1557.518 87.879L1557.177 88.289L1556.841 88.705L1556.510 89.126L1556.186 89.550L1555.867 89.979L1555.554 90.412L1555.247 90.850L1554.946 91.291L1554.651 91.738L1554.361 92.188L1554.077 92.643L1553.799 93.102L1553.527 93.566L1553.261 94.034L1553.001 94.507L1552.746 94.983L1552.497 95.465L1552.254 95.951L1552.017 96.441L1551.785 96.936L1551.559 97.436L1551.340 97.939L1551.125 98.448L1550.917 98.961L1550.715 99.478L1550.520 99.995L1550.335 100.513L1550.157 101.030L1549.988 101.549L1549.827 102.068L1549.675 102.588L1549.531 103.108L1549.395 103.629L1549.268 104.150L1549.148 104.673L1549.037 105.196L1548.934 105.719L1548.840 106.244L1548.754 106.769L1548.676 107.295L1548.606 107.822L1548.544 108.349L1548.491 108.878L1548.446 109.407L1548.409 109.937L1548.380 110.468L1548.359 111.000L1548.347 111.533L1548.343 112.068L1548.347 112.582L1548.358 113.090L1548.377 113.591L1548.403 114.085L1548.437 114.571L1548.478 115.050L1548.526 115.522L1548.582 115.986L1548.645 116.444L1548.715 116.894L1548.792 117.337L1548.877 117.773L1548.968 118.202L1549.067 118.624L1549.173 119.038L1549.285 119.446L1549.405 119.846L1549.532 120.240L1549.665 120.627L1549.806 121.007L1549.953 121.380L1550.107 121.747L1550.268 122.106L1550.436 122.462L1550.612 122.813L1550.794 123.159L1550.980 123.496L1551.170 123.826L1551.364 124.148L1551.563 124.462L1551.766 124.768L1551.974 125.067L1552.185 125.358L1552.401 125.642L1552.622 125.918L1552.846 126.187L1553.075 126.448L1553.308 126.702L1553.545 126.949L1553.787 127.189L1554.033 127.422L1554.284 127.648L1554.539 127.867L1554.799 128.079L1555.063 128.285L1555.332 128.483L1555.606 128.675L1555.885 128.861L1556.168 129.040L1556.454 129.212L1556.742 129.375L1557.031 129.531L1557.323 129.679L1557.617 129.819L1557.913 129.951L1558.211 130.075L1558.512 130.192L1558.814 130.302L1559.120 130.404L1559.428 130.498L1559.738 130.585L1560.052 130.664L1560.368 130.736L1560.687 130.800L1561.009 130.857L1561.334 130.906L1561.662 130.948L1561.994 130.982L1562.328 131.009L1562.667 131.028L1563.008 131.040L1563.352 131.043ZM1563.703 129.821L1563.631 129.819L1563.393 129.806L1563.319 129.800L1563.084 129.779L1563.009 129.771L1562.778 129.741L1562.702 129.730L1562.475 129.691L1562.397 129.677L1562.174 129.630L1562.096 129.612L1561.876 129.557L1561.797 129.535L1561.581 129.471L1561.503 129.447L1561.290 129.374L1561.213 129.346L1561.004 129.265L1560.928 129.234L1560.722 129.144L1560.647 129.110L1560.445 129.012L1560.372 128.975L1560.174 128.868L1560.103 128.828L1559.908 128.713L1559.840 128.671L1559.649 128.547L1559.583 128.503L1559.395 128.371L1559.332 128.324L1559.149 128.184L1559.088 128.136L1558.908 127.987L1558.852 127.938L1558.675 127.781L1558.621 127.731L1558.449 127.565L1558.398 127.515L1558.229 127.340L1558.182 127.290L1558.016 127.107L1557.972 127.056L1557.810 126.865L1557.769 126.814L1557.611 126.614L1557.563 126.552L1557.410 126.342L1557.358 126.268L1557.212 126.046L1557.166 125.973L1557.025 125.740L1556.984 125.669L1556.851 125.425L1556.814 125.355L1556.687 125.099L1556.655 125.032L1556.534 124.765L1556.506 124.700L1556.392 124.421L1556.368 124.359L1556.260 124.069L1556.239 124.009L1556.138 123.708L1556.120 123.650L1556.025 123.338L1556.010 123.283L1555.922 122.959L1555.908 122.907L1555.827 122.571L1555.815 122.521L1555.740 122.174L1555.731 122.127L1555.662 121.769L1555.654 121.724L1555.592 121.354L1555.585 121.311L1555.530 120.930L1555.525 120.889L1555.476 120.497L1555.471 120.458L1555.429 120.054L1555.425 120.017L1555.389 119.602L1555.387 119.567L1555.357 119.140L1555.355 119.107L1555.333 118.669L1555.331 118.637L1555.315 118.187L1555.314 118.157L1555.304 117.696L1555.304 117.667L1555.301 117.195L1555.301 117.172L1555.302 116.788L1555.303 116.769L1555.308 116.384L1555.308 116.366L1555.317 115.979L1555.318 115.960L1555.331 115.572L1555.331 115.554L1555.348 115.164L1555.348 115.146L1555.368 114.754L1555.369 114.736L1555.393 114.343L1555.394 114.325L1555.421 113.930L1555.422 113.913L1555.453 113.516L1555.455 113.499L1555.489 113.101L1555.491 113.083L1555.529 112.684L1555.530 112.667L1555.572 112.265L1555.574 112.248L1555.619 111.845L1555.621 111.829L1555.670 111.424L1555.672 111.408L1555.725 111.001L1555.727 110.985L1555.783 110.577L1555.785 110.561L1555.845 110.151L1555.847 110.135L1555.911 109.724L1555.913 109.709L1555.980 109.296L1555.983 109.280L1556.054 108.866L1556.056 108.850L1556.131 108.434L1556.133 108.419L1556.211 108.001L1556.214 107.986L1556.296 107.567L1556.299 107.552L1556.384 107.131L1556.387 107.117L1556.475 106.696L1556.478 106.682L1556.569 106.262L1556.572 106.248L1556.667 105.828L1556.670 105.815L1556.767 105.396L1556.770 105.382L1556.870 104.964L1556.873 104.951L1556.976 104.534L1556.980 104.520L1557.086 104.104L1557.089 104.091L1557.198 103.676L1557.201 103.662L1557.313 103.248L1557.317 103.234L1557.431 102.821L1557.435 102.807L1557.553 102.395L1557.556 102.382L1557.677 101.970L1557.681 101.957L1557.804 101.546L1557.808 101.533L1557.934 101.123L1557.938 101.110L1558.067 100.701L1558.072 100.687L1558.204 100.280L1558.208 100.266L1558.343 99.859L1558.347 99.846L1558.485 99.440L1558.490 99.427L1558.630 99.022L1558.635 99.008L1558.778 98.604L1558.783 98.591L1558.930 98.188L1558.935 98.174L1559.084 97.772L1559.089 97.759L1559.241 97.357L1559.246 97.344L1559.401 96.944L1559.406 96.931L1559.564 96.532L1559.569 96.520L1559.728 96.125L1559.733 96.112L1559.894 95.720L1559.899 95.707L1560.062 95.319L1560.068 95.306L1560.232 94.920L1560.238 94.907L1560.404 94.525L1560.410 94.512L1560.579 94.133L1560.584 94.120L1560.755 93.745L1560.761 93.731L1560.933 93.359L1560.939 93.346L1561.113 92.977L1561.119 92.963L1561.295 92.597L1561.301 92.584L1561.479 92.221L1561.485 92.208L1561.664 91.848L1561.671 91.834L1561.852 91.478L1561.860 91.465L1562.042 91.112L1562.050 91.098L1562.234 90.748L1562.242 90.734L1562.428 90.388L1562.436 90.374L1562.624 90.031L1562.632 90.017L1562.822 89.677L1562.830 89.663L1563.022 89.326L1563.030 89.312L1563.224 88.979L1563.232 88.965L1563.428 88.635L1563.436 88.620L1563.634 88.293L1563.643 88.279L1563.842 87.955L1563.852 87.939L1564.053 87.620L1564.064 87.602L1564.266 87.289L1564.278 87.270L1564.481 86.962L1564.493 86.944L1564.698 86.641L1564.710 86.622L1564.916 86.325L1564.929 86.306L1565.136 86.014L1565.150 85.995L1565.358 85.709L1565.373 85.689L1565.582 85.408L1565.597 85.389L1565.808 85.113L1565.823 85.093L1566.035 84.823L1566.051 84.803L1566.265 84.538L1566.281 84.518L1566.496 84.259L1566.513 84.238L1566.729 83.985L1566.747 83.964L1566.964 83.716L1566.982 83.695L1567.201 83.452L1567.220 83.431L1567.439 83.193L1567.459 83.172L1567.680 82.940L1567.700 82.919L1567.923 82.692L1567.944 82.671L1568.167 82.450L1568.189 82.429L1568.414 82.213L1568.436 82.192L1568.662 81.981L1568.686 81.960L1568.913 81.755L1568.937 81.734L1569.166 81.534L1569.191 81.513L1569.420 81.319L1569.449 81.295L1569.680 81.107L1569.714 81.081L1569.944 80.901L1569.980 80.874L1570.211 80.703L1570.248 80.676L1570.479 80.512L1570.518 80.485L1570.750 80.330L1570.790 80.303L1571.022 80.156L1571.065 80.129L1571.296 79.990L1571.341 79.963L1571.573 79.832L1571.620 79.806L1571.852 79.683L1571.901 79.657L1572.133 79.542L1572.184 79.517L1572.416 79.410L1572.469 79.386L1572.701 79.287L1572.756 79.264L1572.989 79.172L1573.046 79.151L1573.278 79.067L1573.337 79.047L1573.570 78.972L1573.630 78.953L1573.863 78.885L1573.925 78.869L1574.158 78.809L1574.222 78.794L1574.455 78.742L1574.520 78.729L1574.753 78.685L1574.819 78.674L1575.053 78.638L1575.119 78.629L1575.354 78.601L1575.421 78.594L1575.655 78.574L1575.723 78.569L1575.957 78.558L1576.025 78.555L1576.260 78.551L1576.320 78.551L1576.596 78.555L1576.650 78.556L1576.921 78.567L1576.977 78.570L1577.243 78.588L1577.300 78.593L1577.561 78.618L1577.620 78.625L1577.877 78.658L1577.937 78.666L1578.189 78.706L1578.251 78.717L1578.497 78.764L1578.561 78.777L1578.803 78.832L1578.867 78.847L1579.104 78.909L1579.170 78.927L1579.402 78.996L1579.468 79.017L1579.695 79.093L1579.762 79.117L1579.984 79.200L1580.051 79.227L1580.268 79.318L1580.336 79.347L1580.548 79.445L1580.615 79.477L1580.822 79.582L1580.888 79.617L1581.091 79.730L1581.156 79.768L1581.353 79.887L1581.418 79.928L1581.610 80.054L1581.673 80.097L1581.861 80.231L1581.921 80.276L1582.104 80.418L1582.163 80.465L1582.341 80.613L1582.397 80.662L1582.570 80.818L1582.624 80.869L1582.793 81.032L1582.844 81.083L1583.007 81.254L1583.069 81.321L1583.226 81.501L1583.294 81.582L1583.445 81.774L1583.505 81.855L1583.649 82.059L1583.703 82.139L1583.841 82.355L1583.888 82.434L1584.019 82.662L1584.061 82.738L1584.185 82.978L1584.221 83.052L1584.339 83.304L1584.370 83.375L1584.481 83.638L1584.508 83.707L1584.612 83.982L1584.635 84.047L1584.732 84.335L1584.752 84.397L1584.843 84.696L1584.859 84.755L1584.943 85.067L1584.957 85.123L1585.035 85.446L1585.046 85.499L1585.117 85.834L1585.127 85.884L1585.190 86.232L1585.198 86.279L1585.255 86.638L1585.262 86.683L1585.312 87.054L1585.318 87.097L1585.361 87.480L1585.365 87.520L1585.402 87.915L1585.405 87.953L1585.436 88.361L1585.438 88.397L1585.461 88.816L1585.463 88.850L1585.480 89.281L1585.481 89.313L1585.491 89.756L1585.491 89.787L1585.495 90.242L1585.495 90.266L1585.493 90.658L1585.493 90.678L1585.487 91.072L1585.486 91.091L1585.477 91.487L1585.476 91.505L1585.463 91.903L1585.462 91.922L1585.445 92.321L1585.444 92.340L1585.423 92.741L1585.422 92.760L1585.398 93.163L1585.396 93.181L1585.368 93.586L1585.367 93.604L1585.334 94.010L1585.333 94.028L1585.297 94.437L1585.295 94.454L1585.255 94.865L1585.253 94.882L1585.210 95.294L1585.208 95.311L1585.160 95.725L1585.158 95.742L1585.107 96.158L1585.105 96.175L1585.049 96.592L1585.047 96.609L1584.988 97.028L1584.986 97.045L1584.923 97.466L1584.921 97.482L1584.854 97.905L1584.851 97.921L1584.781 98.346L1584.778 98.362L1584.704 98.788L1584.701 98.804L1584.623 99.232L1584.620 99.248L1584.539 99.678L1584.536 99.693L1584.450 100.125L1584.447 100.140L1584.358 100.574L1584.355 100.588L1584.262 101.023L1584.259 101.036L1584.163 101.469L1584.160 101.483L1584.062 101.915L1584.059 101.928L1583.957 102.359L1583.954 102.373L1583.850 102.803L1583.846 102.816L1583.739 103.245L1583.736 103.259L1583.625 103.686L1583.622 103.700L1583.509 104.127L1583.505 104.140L1583.389 104.566L1583.386 104.579L1583.267 105.004L1583.263 105.017L1583.141 105.441L1583.137 105.454L1583.013 105.876L1583.009 105.890L1582.881 106.311L1582.877 106.324L1582.746 106.745L1582.742 106.758L1582.609 107.177L1582.605 107.190L1582.468 107.608L1582.464 107.622L1582.325 108.039L1582.320 108.052L1582.178 108.468L1582.174 108.481L1582.029 108.896L1582.024 108.909L1581.876 109.323L1581.871 109.336L1581.721 109.749L1581.716 109.762L1581.562 110.173L1581.557 110.186L1581.401 110.597L1581.395 110.610L1581.236 111.019L1581.231 111.032L1581.069 111.439L1581.064 111.452L1580.900 111.856L1580.895 111.869L1580.729 112.270L1580.723 112.283L1580.555 112.681L1580.550 112.694L1580.380 113.088L1580.374 113.101L1580.202 113.492L1580.196 113.506L1580.022 113.893L1580.016 113.907L1579.840 114.291L1579.834 114.305L1579.656 114.686L1579.650 114.699L1579.470 115.077L1579.463 115.091L1579.281 115.466L1579.274 115.480L1579.091 115.851L1579.084 115.865L1578.898 116.233L1578.891 116.247L1578.703 116.612L1578.695 116.626L1578.506 116.987L1578.498 117.002L1578.306 117.360L1578.299 117.374L1578.105 117.729L1578.097 117.743L1577.901 118.095L1577.893 118.110L1577.695 118.458L1577.687 118.473L1577.487 118.818L1577.479 118.832L1577.277 119.174L1577.268 119.189L1577.064 119.527L1577.055 119.542L1576.850 119.878L1576.841 119.892L1576.633 120.224L1576.623 120.240L1576.414 120.568L1576.402 120.585L1576.192 120.907L1576.181 120.925L1575.969 121.241L1575.957 121.259L1575.745 121.570L1575.732 121.588L1575.519 121.893L1575.506 121.911L1575.291 122.211L1575.278 122.229L1575.062 122.523L1575.048 122.542L1574.831 122.830L1574.817 122.849L1574.599 123.132L1574.584 123.151L1574.365 123.428L1574.349 123.447L1574.129 123.719L1574.113 123.738L1573.892 124.004L1573.875 124.024L1573.653 124.284L1573.635 124.304L1573.412 124.559L1573.394 124.579L1573.170 124.828L1573.151 124.848L1572.926 125.092L1572.906 125.112L1572.680 125.350L1572.660 125.371L1572.432 125.603L1572.411 125.624L1572.182 125.850L1572.161 125.871L1571.931 126.092L1571.909 126.113L1571.678 126.328L1571.655 126.349L1571.423 126.559L1571.400 126.580L1571.166 126.784L1571.142 126.805L1570.908 127.003L1570.879 127.027L1570.644 127.219L1570.611 127.245L1570.377 127.429L1570.342 127.455L1570.107 127.631L1570.070 127.657L1569.835 127.824L1569.797 127.851L1569.562 128.010L1569.522 128.037L1569.287 128.188L1569.245 128.214L1569.010 128.357L1568.965 128.383L1568.731 128.517L1568.684 128.543L1568.449 128.670L1568.401 128.695L1568.166 128.813L1568.116 128.838L1567.881 128.948L1567.828 128.971L1567.593 129.073L1567.539 129.096L1567.304 129.190L1567.247 129.211L1567.013 129.297L1566.954 129.317L1566.719 129.395L1566.659 129.414L1566.424 129.483L1566.362 129.500L1566.127 129.561L1566.063 129.577L1565.829 129.630L1565.763 129.643L1565.529 129.688L1565.462 129.700L1565.227 129.736L1565.160 129.746L1564.925 129.774L1564.857 129.781L1564.622 129.802L1564.553 129.807L1564.318 129.819L1564.249 129.821L1564.014 129.825L1563.944 129.825ZM1534.003 112.506L1533.588 113.061L1533.572 113.082L1533.062 113.748L1533.045 113.770L1532.532 114.420L1532.515 114.441L1532.001 115.075L1531.983 115.097L1531.467 115.715L1531.448 115.738L1530.930 116.340L1530.910 116.363L1530.390 116.949L1530.369 116.972L1529.848 117.542L1529.826 117.565L1529.303 118.120L1529.280 118.143L1528.755 118.682L1528.731 118.706L1528.204 119.228L1528.180 119.252L1527.651 119.759L1527.625 119.783L1527.094 120.274L1527.068 120.298L1526.535 120.773L1526.507 120.797L1525.973 121.256L1525.944 121.281L1525.408 121.723L1525.377 121.748L1524.839 122.175L1524.807 122.199L1524.268 122.610L1524.235 122.635L1523.693 123.030L1523.659 123.054L1523.116 123.433L1523.080 123.458L1522.535 123.821L1522.498 123.845L1521.951 124.192L1521.912 124.216L1521.362 124.548L1521.321 124.572L1520.765 124.890L1520.724 124.912L1520.163 125.216L1520.121 125.238L1519.554 125.528L1519.512 125.549L1518.939 125.825L1518.896 125.845L1518.319 126.106L1518.275 126.125L1517.692 126.373L1517.647 126.391L1517.059 126.624L1517.014 126.641L1516.420 126.860L1516.375 126.876L1515.775 127.081L1515.730 127.096L1515.125 127.287L1515.080 127.300L1514.469 127.477L1514.424 127.490L1513.808 127.652L1513.762 127.664L1513.141 127.812L1513.095 127.822L1512.468 127.957L1512.423 127.966L1511.791 128.086L1511.745 128.094L1511.108 128.200L1511.063 128.207L1510.420 128.299L1510.375 128.305L1509.726 128.382L1509.682 128.387L1509.028 128.451L1508.984 128.455L1508.325 128.504L1508.281 128.507L1507.616 128.542L1507.574 128.544L1506.903 128.565L1506.861 128.566L1506.185 128.573L1506.104 128.572L1504.630 128.527L1504.501 128.519L1503.091 128.385L1502.952 128.366L1501.604 128.142L1501.458 128.112L1500.173 127.797L1500.020 127.753L1498.797 127.349L1498.641 127.290L1497.482 126.796L1497.326 126.721L1496.229 126.137L1496.077 126.047L1495.043 125.373L1494.898 125.270L1493.927 124.506L1493.794 124.392L1492.885 123.538L1492.765 123.415L1491.919 122.472L1491.814 122.345L1491.030 121.311L1490.941 121.183L1490.220 120.060L1490.145 119.934L1489.487 118.720L1489.426 118.598L1488.830 117.295L1488.781 117.178L1488.248 115.785L1488.210 115.675L1487.740 114.192L1487.710 114.090L1487.303 112.517L1487.280 112.421L1486.936 110.759L1486.919 110.671L1486.637 108.918L1486.626 108.837L1486.407 106.995L1486.399 106.920L1486.242 104.988L1486.238 104.919L1486.144 102.897L1486.142 102.834L1486.111 100.722L1486.110 100.681L1486.115 99.901L1486.115 99.878L1486.128 99.102L1486.129 99.079L1486.150 98.307L1486.151 98.284L1486.182 97.517L1486.183 97.494L1486.222 96.731L1486.223 96.707L1486.271 95.949L1486.273 95.925L1486.329 95.171L1486.331 95.147L1486.396 94.397L1486.398 94.373L1486.472 93.627L1486.475 93.603L1486.558 92.861L1486.560 92.837L1486.652 92.100L1486.655 92.075L1486.755 91.343L1486.758 91.318L1486.867 90.589L1486.871 90.565L1486.988 89.841L1486.993 89.815L1487.119 89.096L1487.123 89.071L1487.258 88.355L1487.263 88.330L1487.407 87.619L1487.412 87.594L1487.564 86.887L1487.570 86.862L1487.731 86.159L1487.737 86.134L1487.906 85.436L1487.913 85.410L1488.091 84.717L1488.098 84.691L1488.285 84.002L1488.292 83.976L1488.488 83.291L1488.495 83.265L1488.700 82.585L1488.707 82.560L1488.919 81.886L1488.927 81.862L1489.145 81.195L1489.153 81.171L1489.379 80.511L1489.387 80.487L1489.619 79.835L1489.628 79.811L1489.867 79.165L1489.876 79.141L1490.121 78.502L1490.131 78.478L1490.383 77.847L1490.393 77.822L1490.652 77.198L1490.662 77.174L1490.928 76.557L1490.939 76.532L1491.211 75.923L1491.223 75.898L1491.502 75.296L1491.514 75.271L1491.800 74.676L1491.812 74.651L1492.104 74.063L1492.117 74.038L1492.416 73.457L1492.430 73.432L1492.735 72.859L1492.749 72.833L1493.062 72.267L1493.076 72.242L1493.395 71.683L1493.410 71.658L1493.736 71.106L1493.752 71.081L1494.084 70.536L1494.100 70.511L1494.440 69.974L1494.456 69.949L1494.802 69.419L1494.819 69.394L1495.172 68.871L1495.189 68.846L1495.548 68.331L1495.566 68.306L1495.933 67.797L1495.951 67.773L1496.323 67.273L1496.341 67.248L1496.718 66.758L1496.738 66.733L1497.120 66.251L1497.140 66.227L1497.527 65.754L1497.547 65.730L1497.940 65.266L1497.961 65.242L1498.358 64.787L1498.380 64.763L1498.783 64.317L1498.805 64.293L1499.212 63.857L1499.235 63.832L1499.648 63.405L1499.672 63.381L1500.089 62.963L1500.114 62.939L1500.537 62.530L1500.561 62.506L1500.989 62.106L1501.015 62.082L1501.448 61.691L1501.474 61.668L1501.912 61.286L1501.939 61.263L1502.382 60.890L1502.409 60.868L1502.857 60.504L1502.885 60.481L1503.338 60.127L1503.367 60.105L1503.825 59.759L1503.854 59.738L1504.317 59.401L1504.347 59.380L1504.815 59.052L1504.845 59.032L1505.319 58.713L1505.349 58.693L1505.828 58.383L1505.858 58.364L1506.342 58.063L1506.373 58.044L1506.862 57.753L1506.896 57.733L1507.389 57.452L1507.427 57.431L1507.923 57.162L1507.961 57.142L1508.461 56.885L1508.500 56.865L1509.004 56.620L1509.044 56.601L1509.550 56.368L1509.591 56.350L1510.101 56.129L1510.142 56.112L1510.656 55.902L1510.697 55.886L1511.215 55.689L1511.257 55.673L1511.777 55.488L1511.820 55.473L1512.344 55.300L1512.387 55.286L1512.914 55.125L1512.958 55.112L1513.489 54.962L1513.532 54.951L1514.067 54.813L1514.110 54.802L1514.648 54.677L1514.692 54.667L1515.233 54.554L1515.277 54.545L1515.822 54.443L1515.866 54.435L1516.414 54.346L1516.458 54.339L1517.009 54.261L1517.053 54.256L1517.608 54.190L1517.652 54.185L1518.210 54.131L1518.254 54.128L1518.815 54.086L1518.858 54.083L1519.424 54.053L1519.466 54.051L1520.035 54.034L1520.077 54.033L1520.650 54.027L1520.698 54.027L1521.361 54.036L1521.418 54.038L1522.067 54.065L1522.126 54.068L1522.761 54.114L1522.822 54.119L1523.444 54.183L1523.507 54.191L1524.115 54.273L1524.181 54.283L1524.775 54.384L1524.842 54.397L1525.422 54.516L1525.492 54.531L1526.058 54.668L1526.129 54.687L1526.681 54.842L1526.754 54.864L1527.292 55.038L1527.366 55.063L1527.891 55.255L1527.965 55.284L1528.476 55.495L1528.550 55.527L1529.048 55.756L1529.122 55.792L1529.606 56.039L1529.679 56.078L1530.149 56.344L1530.222 56.387L1530.678 56.670L1530.750 56.717L1531.192 57.019L1531.262 57.069L1531.690 57.389L1531.758 57.441L1532.173 57.780L1532.237 57.835L1532.639 58.192L1532.701 58.250L1533.088 58.625L1533.147 58.684L1533.521 59.078L1533.576 59.139L1533.936 59.551L1533.988 59.613L1534.334 60.043L1534.383 60.105L1534.716 60.555L1534.760 60.617L1535.082 61.088L1535.122 61.149L1535.433 61.640L1535.469 61.701L1535.768 62.213L1535.801 62.272L1536.088 62.805L1536.118 62.862L1536.393 63.416L1536.420 63.472L1536.684 64.047L1536.708 64.101L1536.960 64.697L1536.981 64.750L1537.222 65.366L1537.241 65.417L1537.470 66.054L1537.487 66.103L1537.704 66.761L1537.719 66.808L1537.925 67.487L1537.938 67.532L1538.133 68.232L1538.144 68.275L1538.327 68.996L1538.337 69.037L1538.508 69.779L1538.517 69.819L1538.676 70.581L1538.684 70.619L1538.832 71.402L1538.838 71.439L1538.975 72.243L1538.980 72.278L1539.105 73.103L1539.110 73.137L1539.223 73.982L1539.227 74.015L1539.328 74.881L1539.332 74.912L1539.421 75.799L1539.424 75.829L1539.425 75.838L1539.875 75.838L1543.943 53.643L1543.490 53.643L1540.228 58.051L1540.105 58.201L1539.968 58.339L1539.818 58.463L1539.657 58.572L1539.486 58.664L1539.307 58.740L1539.122 58.797L1538.932 58.837L1538.739 58.858L1538.544 58.860L1538.351 58.843L1538.160 58.808L1537.973 58.754L1537.793 58.682L1537.620 58.593L1537.457 58.488L1536.760 57.990L1536.080 57.526L1535.399 57.084L1534.717 56.662L1534.034 56.263L1533.349 55.884L1532.664 55.526L1531.977 55.190L1531.289 54.875L1530.600 54.580L1529.910 54.306L1529.218 54.053L1528.525 53.820L1527.830 53.608L1527.134 53.416L1526.436 53.245L1525.736 53.093L1525.034 52.963L1524.330 52.852L1523.624 52.761L1522.916 52.691L1522.205 52.640L1521.491 52.610L1520.768 52.600L1520.206 52.604L1519.639 52.617L1519.074 52.639L1518.511 52.669L1517.950 52.707L1517.391 52.755L1516.833 52.810L1516.278 52.875L1515.724 52.948L1515.172 53.029L1514.622 53.119L1514.074 53.218L1513.527 53.325L1512.982 53.441L1512.439 53.565L1511.898 53.698L1511.358 53.840L1510.820 53.990L1510.283 54.148L1509.748 54.316L1509.214 54.492L1508.682 54.677L1508.152 54.870L1507.622 55.072L1507.093 55.283L1506.566 55.501L1506.043 55.726L1505.523 55.959L1505.005 56.198L1504.491 56.445L1503.980 56.698L1503.472 56.959L1502.967 57.227L1502.465 57.502L1501.966 57.784L1501.470 58.073L1500.977 58.370L1500.487 58.674L1500.001 58.984L1499.517 59.302L1499.036 59.628L1498.558 59.960L1498.082 60.300L1497.610 60.647L1497.141 61.001L1496.675 61.363L1496.212 61.731L1495.751 62.107L1495.294 62.490L1494.842 62.878L1494.395 63.271L1493.953 63.670L1493.517 64.073L1493.085 64.482L1492.658 64.896L1492.237 65.315L1491.820 65.740L1491.409 66.169L1491.002 66.604L1490.601 67.045L1490.204 67.490L1489.813 67.941L1489.426 68.397L1489.045 68.858L1488.668 69.325L1488.297 69.797L1487.930 70.274L1487.569 70.757L1487.212 71.245L1486.860 71.738L1486.514 72.237L1486.172 72.741L1485.836 73.250L1485.505 73.762L1485.181 74.277L1484.863 74.797L1484.552 75.319L1484.246 75.845L1483.946 76.375L1483.653 76.908L1483.365 77.444L1483.084 77.985L1482.809 78.528L1482.540 79.075L1482.277 79.626L1482.020 80.180L1481.769 80.738L1481.524 81.299L1481.285 81.864L1481.053 82.433L1480.826 83.005L1480.606 83.581L1480.391 84.160L1480.183 84.743L1479.981 85.329L1479.785 85.919L1479.597 86.508L1479.417 87.099L1479.245 87.692L1479.081 88.286L1478.926 88.882L1478.778 89.481L1478.638 90.081L1478.506 90.683L1478.382 91.287L1478.267 91.893L1478.159 92.500L1478.059 93.110L1477.967 93.722L1477.883 94.336L1477.807 94.952L1477.739 95.570L1477.679 96.190L1477.627 96.812L1477.583 97.436L1477.547 98.062L1477.519 98.690L1477.499 99.321L1477.487 99.953L1477.483 100.587L1477.489 101.381L1477.506 102.164L1477.534 102.937L1477.574 103.701L1477.625 104.455L1477.687 105.199L1477.760 105.934L1477.844 106.659L1477.940 107.375L1478.047 108.080L1478.164 108.777L1478.293 109.463L1478.433 110.140L1478.584 110.808L1478.745 111.465L1478.918 112.114L1479.102 112.753L1479.296 113.382L1479.501 114.003L1479.717 114.614L1479.944 115.215L1480.181 115.808L1480.430 116.391L1480.689 116.965L1480.958 117.530L1481.237 118.084L1481.524 118.626L1481.819 119.156L1482.124 119.674L1482.436 120.181L1482.758 120.676L1483.088 121.160L1483.426 121.632L1483.773 122.093L1484.129 122.542L1484.493 122.980L1484.866 123.407L1485.248 123.824L1485.638 124.229L1486.037 124.623L1486.445 125.006L1486.862 125.379L1487.287 125.741L1487.722 126.092L1488.166 126.433L1488.619 126.763L1489.081 127.083L1489.552 127.392L1490.029 127.688L1490.514 127.972L1491.006 128.243L1491.506 128.501L1492.014 128.747L1492.529 128.981L1493.052 129.202L1493.584 129.410L1494.123 129.606L1494.671 129.790L1495.227 129.962L1495.791 130.120L1496.364 130.267L1496.945 130.401L1497.535 130.522L1498.134 130.631L1498.741 130.727L1499.357 130.811L1499.983 130.882L1500.617 130.940L1501.260 130.985L1501.912 131.018L1502.573 131.037L1503.246 131.044L1503.798 131.040L1504.349 131.030L1504.895 131.012L1505.436 130.988L1505.973 130.957L1506.504 130.919L1507.032 130.874L1507.554 130.823L1508.072 130.764L1508.585 130.699L1509.094 130.627L1509.598 130.548L1510.097 130.462L1510.592 130.370L1511.082 130.271L1511.568 130.165L1512.049 130.053L1512.525 129.933L1512.997 129.807L1513.465 129.674L1513.928 129.535L1514.387 129.389L1514.841 129.236L1515.290 129.077L1515.736 128.911L1516.179 128.736L1516.620 128.554L1517.060 128.363L1517.499 128.164L1517.936 127.957L1518.371 127.741L1518.805 127.517L1519.237 127.285L1519.668 127.044L1520.098 126.795L1520.526 126.537L1520.953 126.272L1521.378 125.997L1521.802 125.714L1522.224 125.423L1522.645 125.123L1523.064 124.814L1523.482 124.497L1523.899 124.172L1524.314 123.837L1524.728 123.494L1525.140 123.143L1525.552 122.782L1525.963 122.412L1526.376 122.031L1526.790 121.640L1527.205 121.239L1527.620 120.828L1528.036 120.407L1528.453 119.976L1528.870 119.536L1529.288 119.085L1529.707 118.624L1530.126 118.153L1530.546 117.673L1530.967 117.182L1531.388 116.681L1531.810 116.170L1532.232 115.650L1532.655 115.119L1533.078 114.578L1533.502 114.028L1533.926 113.467L1534.351 112.896L1534.429 112.790Z" fill="#9AA098"/><line x1="692.25" y1="198.60" x2="992.07" y2="198.60" stroke="#9AA098" stroke-width="2.6"/><path d="M588.563 245.860Q586.067 245.860 583.939 245.012Q581.811 244.164 580.243 242.628Q578.675 241.092 577.811 239.028Q576.947 236.964 576.947 234.500Q576.947 232.036 577.811 229.972Q578.675 227.908 580.259 226.372Q581.843 224.836 583.955 223.988Q586.067 223.140 588.563 223.140Q590.931 223.140 592.995 223.908Q595.059 224.676 596.531 226.244L595.507 227.300Q594.067 225.892 592.323 225.268Q590.579 224.644 588.627 224.644Q586.483 224.644 584.643 225.380Q582.803 226.116 581.443 227.460Q580.083 228.804 579.331 230.596Q578.579 232.388 578.579 234.500Q578.579 236.612 579.331 238.404Q580.083 240.196 581.443 241.540Q582.803 242.884 584.643 243.620Q586.483 244.356 588.627 244.356Q590.579 244.356 592.323 243.732Q594.067 243.108 595.507 241.668L596.531 242.724Q595.059 244.292 592.995 245.076Q590.931 245.860 588.563 245.860ZM619.522 245.860Q615.362 245.860 612.962 243.428Q610.562 240.996 610.562 236.196V223.300H612.194V236.132Q612.194 240.324 614.114 242.340Q616.034 244.356 619.554 244.356Q623.042 244.356 624.962 242.340Q626.882 240.324 626.882 236.132V223.300H628.514V236.196Q628.514 240.996 626.114 243.428Q623.714 245.860 619.522 245.860ZM651.089 245.860Q648.593 245.860 646.369 245.012Q644.145 244.164 642.929 242.820L643.665 241.604Q644.817 242.788 646.817 243.604Q648.817 244.420 651.057 244.420Q653.297 244.420 654.721 243.828Q656.145 243.236 656.833 242.244Q657.521 241.252 657.521 240.036Q657.521 238.596 656.753 237.732Q655.985 236.868 654.737 236.356Q653.489 235.844 652.017 235.492Q650.545 235.140 649.041 234.740Q647.537 234.340 646.289 233.700Q645.041 233.060 644.289 231.956Q643.537 230.852 643.537 229.092Q643.537 227.492 644.369 226.148Q645.201 224.804 646.961 223.972Q648.721 223.140 651.473 223.140Q653.329 223.140 655.137 223.684Q656.945 224.228 658.225 225.156L657.617 226.468Q656.209 225.508 654.593 225.044Q652.977 224.580 651.473 224.580Q649.329 224.580 647.921 225.188Q646.513 225.796 645.841 226.804Q645.169 227.812 645.169 229.060Q645.169 230.500 645.921 231.364Q646.673 232.228 647.921 232.740Q649.169 233.252 650.673 233.604Q652.177 233.956 653.649 234.356Q655.121 234.756 656.369 235.396Q657.617 236.036 658.385 237.124Q659.153 238.212 659.153 239.940Q659.153 241.508 658.289 242.868Q657.425 244.228 655.649 245.044Q653.873 245.860 651.089 245.860ZM678.048 245.700V224.772H669.984V223.300H687.744V224.772H679.680V245.700ZM710.351 245.860Q707.855 245.860 705.727 245.012Q703.599 244.164 702.015 242.612Q700.431 241.060 699.567 238.996Q698.703 236.932 698.703 234.500Q698.703 232.068 699.567 230.004Q700.431 227.940 702.015 226.388Q703.599 224.836 705.727 223.988Q707.855 223.140 710.351 223.140Q712.847 223.140 714.975 223.988Q717.103 224.836 718.671 226.372Q720.239 227.908 721.119 229.972Q721.999 232.036 721.999 234.500Q721.999 236.964 721.119 239.028Q720.239 241.092 718.671 242.628Q717.103 244.164 714.975 245.012Q712.847 245.860 710.351 245.860ZM710.351 244.356Q712.495 244.356 714.319 243.620Q716.143 242.884 717.487 241.540Q718.831 240.196 719.583 238.404Q720.335 236.612 720.335 234.500Q720.335 232.356 719.583 230.580Q718.831 228.804 717.487 227.460Q716.143 226.116 714.319 225.380Q712.495 224.644 710.351 224.644Q708.207 224.644 706.383 225.380Q704.559 226.116 703.199 227.460Q701.839 228.804 701.087 230.580Q700.335 232.356 700.335 234.500Q700.335 236.612 701.087 238.404Q701.839 240.196 703.199 241.540Q704.559 242.884 706.383 243.620Q708.207 244.356 710.351 244.356ZM736.734 245.700V223.300H738.110L748.510 241.252H747.774L758.142 223.300H759.486L759.518 245.700H757.918L757.886 225.764H758.334L748.510 242.724H747.710L737.854 225.764H738.334V245.700ZM793.691 245.700V223.300H801.723Q805.947 223.300 808.347 225.284Q810.747 227.268 810.747 230.852Q810.747 233.188 809.659 234.868Q808.571 236.548 806.555 237.460Q804.539 238.372 801.723 238.372H794.587L795.323 237.604V245.700ZM809.243 245.700 803.419 237.572H805.275L811.099 245.700ZM795.323 237.700 794.587 236.932H801.723Q805.339 236.932 807.211 235.332Q809.083 233.732 809.083 230.852Q809.083 227.940 807.211 226.356Q805.339 224.772 801.723 224.772H794.587L795.323 223.972ZM825.802 245.700V223.300H840.778V224.772H827.434V244.228H841.258V245.700ZM827.242 235.044V233.604H839.370V235.044ZM856.281 245.700V223.300H857.657L868.057 241.252H867.321L877.689 223.300H879.033L879.065 245.700H877.465L877.433 225.764H877.881L868.057 242.724H867.257L857.401 225.764H857.881V245.700ZM905.448 245.860Q902.952 245.860 900.824 245.012Q898.696 244.164 897.112 242.612Q895.528 241.060 894.664 238.996Q893.800 236.932 893.800 234.500Q893.800 232.068 894.664 230.004Q895.528 227.940 897.112 226.388Q898.696 224.836 900.824 223.988Q902.952 223.140 905.448 223.140Q907.944 223.140 910.072 223.988Q912.200 224.836 913.768 226.372Q915.336 227.908 916.216 229.972Q917.096 232.036 917.096 234.500Q917.096 236.964 916.216 239.028Q915.336 241.092 913.768 242.628Q912.200 244.164 910.072 245.012Q907.944 245.860 905.448 245.860ZM905.448 244.356Q907.592 244.356 909.416 243.620Q911.240 242.884 912.584 241.540Q913.928 240.196 914.680 238.404Q915.432 236.612 915.432 234.500Q915.432 232.356 914.680 230.580Q913.928 228.804 912.584 227.460Q911.240 226.116 909.416 225.380Q907.592 224.644 905.448 224.644Q903.304 224.644 901.480 225.380Q899.656 226.116 898.296 227.460Q896.936 228.804 896.184 230.580Q895.432 232.356 895.432 234.500Q895.432 236.612 896.184 238.404Q896.936 240.196 898.296 241.540Q899.656 242.884 901.480 243.620Q903.304 244.356 905.448 244.356ZM931.831 245.700V223.300H940.695Q944.247 223.300 946.935 224.740Q949.623 226.180 951.111 228.708Q952.599 231.236 952.599 234.500Q952.599 237.764 951.111 240.292Q949.623 242.820 946.935 244.260Q944.247 245.700 940.695 245.700ZM933.463 244.228H940.567Q943.735 244.228 946.071 242.980Q948.407 241.732 949.687 239.540Q950.967 237.348 950.967 234.500Q950.967 231.652 949.687 229.460Q948.407 227.268 946.071 226.020Q943.735 224.772 940.567 224.772H933.463ZM967.334 245.700V223.300H982.310V224.772H968.966V244.228H982.790V245.700ZM968.774 235.044V233.604H980.902V235.044ZM997.813 245.700V223.300H999.445V244.228H1012.341V245.700ZM1025.604 245.700V223.300H1027.236V245.700ZM1044.115 245.700V223.300H1045.491L1061.459 243.684H1060.723V223.300H1062.355V245.700H1061.011L1045.011 225.316H1045.747V245.700ZM1088.802 245.860Q1086.274 245.860 1084.130 245.012Q1081.986 244.164 1080.402 242.628Q1078.818 241.092 1077.954 239.028Q1077.090 236.964 1077.090 234.500Q1077.090 232.036 1077.954 229.972Q1078.818 227.908 1080.418 226.372Q1082.018 224.836 1084.146 223.988Q1086.274 223.140 1088.834 223.140Q1091.266 223.140 1093.346 223.908Q1095.426 224.676 1096.898 226.212L1095.874 227.300Q1094.402 225.860 1092.658 225.252Q1090.914 224.644 1088.866 224.644Q1086.690 224.644 1084.834 225.380Q1082.978 226.116 1081.602 227.460Q1080.226 228.804 1079.474 230.596Q1078.722 232.388 1078.722 234.500Q1078.722 236.612 1079.474 238.404Q1080.226 240.196 1081.602 241.540Q1082.978 242.884 1084.834 243.620Q1086.690 244.356 1088.866 244.356Q1090.850 244.356 1092.626 243.748Q1094.402 243.140 1095.874 241.732L1096.802 242.980Q1095.298 244.420 1093.202 245.140Q1091.106 245.860 1088.802 245.860ZM1096.802 242.980 1095.234 242.788V234.596H1096.802Z" fill="#2C302F"/><path d="M606.265 292.700V277.751H600.505V276.700H613.190V277.751H607.430V292.700ZM623.385 292.700V276.700H629.122Q632.139 276.700 633.853 278.117Q635.568 279.534 635.568 282.094Q635.568 283.763 634.790 284.963Q634.013 286.163 632.573 286.814Q631.133 287.466 629.122 287.466H624.025L624.550 286.917V292.700ZM634.493 292.700 630.333 286.894H631.659L635.819 292.700ZM624.550 286.986 624.025 286.437H629.122Q631.705 286.437 633.042 285.294Q634.379 284.151 634.379 282.094Q634.379 280.014 633.042 278.883Q631.705 277.751 629.122 277.751H624.025L624.550 277.180ZM647.156 292.700V276.700H657.853V277.751H648.322V291.649H658.196V292.700ZM648.185 285.089V284.060H656.848V285.089ZM667.088 292.700 674.448 276.700H675.613L682.973 292.700H681.716L674.768 277.431H675.270L668.345 292.700ZM669.785 288.197 670.173 287.214H679.750L680.139 288.197ZM697.396 292.814Q695.613 292.814 694.025 292.209Q692.436 291.603 691.568 290.643L692.093 289.774Q692.916 290.620 694.345 291.203Q695.773 291.786 697.373 291.786Q698.973 291.786 699.990 291.363Q701.008 290.940 701.499 290.231Q701.990 289.523 701.990 288.654Q701.990 287.626 701.442 287.009Q700.893 286.391 700.002 286.026Q699.110 285.660 698.059 285.409Q697.008 285.157 695.933 284.871Q694.859 284.586 693.968 284.129Q693.076 283.671 692.539 282.883Q692.002 282.094 692.002 280.837Q692.002 279.694 692.596 278.734Q693.190 277.774 694.448 277.180Q695.705 276.586 697.670 276.586Q698.996 276.586 700.288 276.974Q701.579 277.363 702.493 278.026L702.059 278.963Q701.053 278.277 699.899 277.946Q698.745 277.614 697.670 277.614Q696.139 277.614 695.133 278.049Q694.128 278.483 693.648 279.203Q693.168 279.923 693.168 280.814Q693.168 281.843 693.705 282.460Q694.242 283.077 695.133 283.443Q696.025 283.809 697.099 284.060Q698.173 284.311 699.225 284.597Q700.276 284.883 701.168 285.340Q702.059 285.797 702.608 286.574Q703.156 287.351 703.156 288.586Q703.156 289.706 702.539 290.677Q701.922 291.649 700.653 292.231Q699.385 292.814 697.396 292.814ZM720.688 292.814Q717.716 292.814 716.002 291.077Q714.288 289.340 714.288 285.911V276.700H715.453V285.866Q715.453 288.860 716.825 290.300Q718.196 291.740 720.710 291.740Q723.202 291.740 724.573 290.300Q725.945 288.860 725.945 285.866V276.700H727.110V285.911Q727.110 289.340 725.396 291.077Q723.682 292.814 720.688 292.814ZM739.865 292.700V276.700H745.602Q748.619 276.700 750.333 278.117Q752.048 279.534 752.048 282.094Q752.048 283.763 751.270 284.963Q750.493 286.163 749.053 286.814Q747.613 287.466 745.602 287.466H740.505L741.030 286.917V292.700ZM750.973 292.700 746.813 286.894H748.139L752.299 292.700ZM741.030 286.986 740.505 286.437H745.602Q748.185 286.437 749.522 285.294Q750.859 284.151 750.859 282.094Q750.859 280.014 749.522 278.883Q748.185 277.751 745.602 277.751H740.505L741.030 277.180ZM763.636 292.700V276.700H774.333V277.751H764.802V291.649H774.676V292.700ZM764.665 285.089V284.060H773.328V285.089ZM803.910 292.700 796.779 276.700H798.059L804.870 291.991H804.162L810.996 276.700H812.208L805.076 292.700ZM819.773 292.700 827.133 276.700H828.299L835.659 292.700H834.402L827.453 277.431H827.956L821.030 292.700ZM822.470 288.197 822.859 287.214H832.436L832.825 288.197ZM845.876 292.700V276.700H847.042V291.649H856.253V292.700ZM866.562 292.700V276.700H867.728V291.649H876.939V292.700ZM887.248 292.700V276.700H897.945V277.751H888.413V291.649H898.288V292.700ZM888.276 285.089V284.060H896.939V285.089ZM913.625 292.700V286.894L913.899 287.649L907.179 276.700H908.459L914.562 286.643H913.922L920.025 276.700H921.236L914.516 287.649L914.790 286.894V292.700ZM944.596 287.557Q944.208 287.557 943.922 287.271Q943.636 286.986 943.636 286.574Q943.636 286.140 943.922 285.866Q944.208 285.591 944.596 285.591Q945.008 285.591 945.282 285.866Q945.556 286.140 945.556 286.574Q945.556 286.986 945.282 287.271Q945.008 287.557 944.596 287.557ZM970.630 292.700V276.700H971.796V292.700ZM984.688 292.700V276.700H991.019Q993.556 276.700 995.476 277.729Q997.396 278.757 998.459 280.563Q999.522 282.369 999.522 284.700Q999.522 287.031 998.459 288.837Q997.396 290.643 995.476 291.671Q993.556 292.700 991.019 292.700ZM985.853 291.649H990.928Q993.190 291.649 994.859 290.757Q996.528 289.866 997.442 288.300Q998.356 286.734 998.356 284.700Q998.356 282.666 997.442 281.100Q996.528 279.534 994.859 278.643Q993.190 277.751 990.928 277.751H985.853ZM1008.208 292.700 1015.568 276.700H1016.733L1024.093 292.700H1022.836L1015.888 277.431H1016.390L1009.465 292.700ZM1010.905 288.197 1011.293 287.214H1020.870L1021.259 288.197ZM1046.173 292.700V276.700H1047.339V292.700ZM1034.310 292.700V276.700H1035.476V292.700ZM1035.339 285.089V284.060H1046.310V285.089ZM1067.019 292.814Q1065.236 292.814 1063.716 292.209Q1062.196 291.603 1061.065 290.494Q1059.933 289.386 1059.316 287.911Q1058.699 286.437 1058.699 284.700Q1058.699 282.963 1059.316 281.489Q1059.933 280.014 1061.065 278.906Q1062.196 277.797 1063.716 277.191Q1065.236 276.586 1067.019 276.586Q1068.802 276.586 1070.322 277.191Q1071.842 277.797 1072.962 278.894Q1074.082 279.991 1074.710 281.466Q1075.339 282.940 1075.339 284.700Q1075.339 286.460 1074.710 287.934Q1074.082 289.409 1072.962 290.506Q1071.842 291.603 1070.322 292.209Q1068.802 292.814 1067.019 292.814ZM1067.019 291.740Q1068.550 291.740 1069.853 291.214Q1071.156 290.689 1072.116 289.729Q1073.076 288.769 1073.613 287.489Q1074.150 286.209 1074.150 284.700Q1074.150 283.169 1073.613 281.900Q1073.076 280.631 1072.116 279.671Q1071.156 278.711 1069.853 278.186Q1068.550 277.660 1067.019 277.660Q1065.488 277.660 1064.185 278.186Q1062.882 278.711 1061.910 279.671Q1060.939 280.631 1060.402 281.900Q1059.865 283.169 1059.865 284.700Q1059.865 286.209 1060.402 287.489Q1060.939 288.769 1061.910 289.729Q1062.882 290.689 1064.185 291.214Q1065.488 291.740 1067.019 291.740Z" fill="#2C302F"/></g></svg>